<mxfile host="app.diagrams.net" modified="2023-07-17T13:34:02.080Z" agent="Mozilla/5.0 (Windows NT 10.0; Win64; x64) AppleWebKit/537.36 (KHTML, like Gecko) Chrome/114.0.0.0 Safari/537.36" version="21.6.2" etag="78XgmIucZN5B9FRH8s7k" type="github">
  <diagram name="Page-1" id="yfDJnFMFS3KJCs2PtE9D">
    <mxGraphModel>
      <root>
        <mxCell id="0" />
        <mxCell id="1" parent="0" />
      </root>
    </mxGraphModel>
  </diagram>
</mxfile>
